<svg xmlns="http://www.w3.org/2000/svg" width="28" height="28" viewBox="0 0 21 21">
    <rect width="21" height="21" rx="4.73" ry="4.73" fill="#06c755"/>
    <path d="m17.5,9.51c0-3.13-3.14-5.68-7-5.68s-7,2.55-7,5.68c0,2.81,2.49,5.16,5.86,5.61.23.05.54.15.62.35.07.18.05.45.02.63,0,0-.08.49-.1.6-.03.18-.14.69.61.38.75-.32,4.03-2.37,5.5-4.06h0c1.01-1.11,1.5-2.24,1.5-3.5h0Z" fill="#fff"/>
    <path d="m15.17,11.32h-1.97c-.07,0-.13-.06-.13-.13h0v-3.05h0c0-.08.06-.14.13-.14h1.97c.07,0,.13.06.13.13v.5c0,.07-.06.13-.13.13h-1.34v.52h1.34c.07,0,.13.06.13.13v.5c0,.07-.06.13-.13.13h-1.34v.52h1.34c.07,0,.13.06.13.13v.5c0,.07-.06.13-.13.13h0Z" fill="#06c755"/>
    <path d="m7.89,11.32c.07,0,.13-.06.13-.13v-.5c0-.07-.06-.13-.13-.13h-1.34v-2.43c0-.07-.06-.13-.13-.13h-.5c-.07,0-.13.06-.13.13v3.05h0c0,.08.06.14.13.14h1.97Z" fill="#06c755"/>
    <rect x="8.45" y="8" width=".76" height="3.32" rx=".13" ry=".13" fill="#06c755"/>
    <path d="m12.46,8h-.5c-.07,0-.13.06-.13.13v1.81l-1.4-1.89s0,0-.01-.01h0s0,0,0,0c0,0,0,0,0,0,0,0,0,0,0,0,0,0,0,0,0,0,0,0,0,0,0,0,0,0,0,0,0,0,0,0,0,0,0,0h0s0,0,0,0c0,0,0,0,0,0,0,0,0,0,0,0,0,0,0,0,0,0,0,0,0,0,0,0,0,0,0,0,0,0,0,0,0,0,0,0h-.51c-.07,0-.13.06-.13.13v3.06c0,.07.06.13.13.13h.5c.07,0,.13-.06.13-.13v-1.81l1.4,1.89s.02.02.03.03c0,0,0,0,0,0,0,0,0,0,0,0,0,0,0,0,0,0,0,0,0,0,0,0s0,0,0,0c0,0,0,0,0,0,0,0,0,0,0,0h0s.02,0,.03,0h.49c.07,0,.13-.06.13-.13v-3.06c0-.07-.06-.13-.13-.13h0Z" fill="#06c755"/>
</svg> 